<?xml version="1.0" standalone="no"?>
<!DOCTYPE svg PUBLIC "-//W3C//DTD SVG 20010904//EN"
 "http://www.w3.org/TR/2001/REC-SVG-20010904/DTD/svg10.dtd">
<svg version="1.0" xmlns="http://www.w3.org/2000/svg"
 width="604.000000pt" height="212.000000pt" viewBox="0 0 604.000000 212.000000"
 preserveAspectRatio="xMidYMid meet">
<metadata>
Created by potrace 1.16, written by Peter Selinger 2001-2019
</metadata>
<g transform="translate(0.000000,212.000000) scale(0.100000,-0.100000)"
fill="#000000" stroke="none">
<path d="M4816 1978 c-58 -78 -72 -189 -32 -265 l15 -31 -40 -26 c-57 -38
-185 -162 -230 -223 -69 -93 -102 -169 -107 -249 -7 -110 23 -176 97 -213 101
-52 248 -27 376 63 l30 21 -19 -30 c-187 -296 -364 -430 -544 -412 -109 11
-180 68 -190 153 l-5 44 36 0 c39 0 57 19 57 63 0 61 -94 78 -134 24 -26 -35
-27 -126 -3 -172 23 -45 76 -91 132 -117 69 -31 212 -31 301 0 177 62 328 202
483 447 35 55 80 120 101 145 56 68 65 89 47 107 -21 21 -78 10 -117 -24 -17
-14 -46 -56 -65 -93 -40 -80 -89 -123 -195 -174 -163 -78 -270 -29 -270 124 0
133 90 304 232 442 l59 56 50 -34 c70 -47 137 -66 256 -71 129 -6 232 14 300
60 66 45 85 75 86 136 1 90 -62 131 -201 131 -133 0 -265 -36 -421 -114 -67
-34 -75 -36 -89 -22 -9 9 -17 40 -20 76 -5 70 15 134 53 170 28 27 32 40 11
40 -8 0 -26 -15 -40 -32z m594 -163 c36 -19 46 -54 32 -104 -12 -40 -60 -94
-101 -116 -105 -54 -292 -49 -412 11 -67 33 -76 47 -45 72 43 33 187 104 261
128 86 28 220 32 265 9z"/>
<path d="M2065 1815 c-27 -7 -86 -14 -130 -14 -417 -6 -801 -106 -941 -246
-64 -64 -86 -111 -87 -191 -2 -122 71 -193 207 -202 157 -10 283 74 317 210
13 55 5 118 -16 118 -11 0 -13 -11 -8 -48 4 -37 0 -60 -17 -100 -41 -96 -135
-152 -251 -152 -50 0 -63 4 -92 30 -45 39 -61 99 -46 169 42 197 299 323 759
371 52 5 122 10 155 10 l60 0 -50 -29 c-95 -55 -224 -180 -332 -323 -58 -76
-197 -298 -336 -538 -53 -91 -102 -173 -109 -183 -10 -13 -51 -24 -168 -43
-508 -82 -573 -97 -661 -153 -85 -53 -128 -137 -115 -224 16 -105 115 -177
255 -185 239 -13 482 148 710 471 l77 108 86 29 c120 40 210 85 282 139 l62
47 -39 -75 c-46 -92 -52 -149 -16 -187 60 -64 206 -5 362 145 l49 46 -61 -98
c-34 -54 -61 -100 -61 -103 0 -2 26 -4 58 -4 l57 1 41 72 c99 172 346 447 446
496 30 14 61 21 85 19 33 -3 38 -6 41 -31 4 -35 -24 -84 -128 -217 -112 -143
-133 -182 -134 -242 -1 -44 3 -53 32 -79 27 -24 41 -29 85 -29 72 0 139 35
231 121 l75 70 -1 -49 c0 -95 44 -142 132 -142 70 0 117 22 199 91 l65 54 -54
-80 c-269 -403 -495 -577 -693 -536 -95 20 -147 81 -147 171 0 83 40 135 113
147 42 6 48 18 15 27 -61 15 -162 -23 -200 -76 -18 -27 -23 -46 -23 -99 0 -57
4 -71 29 -103 17 -23 51 -49 85 -65 52 -24 66 -26 186 -26 125 0 133 2 204 33
40 18 104 52 140 77 83 54 217 192 296 304 l60 83 90 33 c123 43 221 105 324
202 86 80 196 223 189 244 -2 6 -33 -28 -68 -76 -111 -150 -261 -270 -414
-332 -44 -18 -82 -30 -85 -28 -4 5 226 357 316 484 29 41 53 78 53 82 0 5 -27
9 -60 9 l-60 0 -28 -45 c-29 -48 -42 -56 -42 -27 0 23 -34 60 -67 73 -90 34
-244 -27 -376 -150 -54 -50 -147 -176 -147 -198 0 -20 -149 -166 -206 -203
-97 -61 -174 -62 -174 -2 0 28 9 43 173 276 76 107 103 167 91 202 -22 69 -56
89 -134 82 -69 -7 -147 -56 -249 -158 -85 -85 -83 -77 16 57 29 40 53 77 53
84 0 16 -113 1 -123 -16 -4 -8 -44 -69 -89 -137 -158 -240 -427 -468 -501
-426 -42 23 -1 104 194 383 69 99 129 186 133 193 5 9 -7 12 -52 12 l-59 0
-38 -57 c-82 -125 -207 -259 -299 -324 -60 -43 -271 -137 -282 -126 -2 2 23
48 56 103 34 54 132 218 219 364 164 277 246 399 326 488 68 75 114 99 207
105 80 6 122 20 115 40 -5 17 -82 18 -142 2z m1281 -640 c53 -82 -74 -334
-229 -453 -141 -109 -215 -96 -205 36 13 179 236 442 375 442 35 0 46 -5 59
-25z m-2261 -577 c-143 -218 -303 -376 -450 -445 -52 -24 -72 -28 -150 -28
-79 0 -94 3 -124 24 -86 62 -94 203 -16 290 75 82 171 114 509 166 127 20 236
37 241 39 20 6 17 -4 -10 -46z"/>
<path d="M5550 1207 c-150 -62 -306 -224 -357 -369 -9 -27 -13 -66 -11 -106 3
-55 8 -67 36 -95 32 -31 34 -32 125 -32 83 0 99 3 161 33 94 44 176 105 277
204 97 94 187 214 172 229 -6 6 -24 -12 -49 -48 -49 -73 -191 -217 -267 -272
-80 -59 -184 -110 -238 -117 -39 -5 -49 -3 -75 19 -27 23 -29 30 -29 94 0 41
7 86 17 113 18 45 18 45 100 68 113 31 255 101 306 149 34 32 42 47 42 76 0
76 -97 100 -210 54z m116 -34 c16 -64 -73 -151 -208 -203 -43 -17 -84 -30 -93
-30 -14 0 -14 3 0 30 26 51 131 165 181 199 62 41 111 43 120 4z"/>
</g>
</svg>
